# xmcd
#
# Track frame offsets:
#	150
#	17347
#	36922
#	57147
#	75520
#	98115
#	114075
#	131507
#	146390
#	161877
#	183980
#	191337
#
# Disc length: 2850 seconds
#
# Revision: 3
# Processed by: cddbd v1.4PL0 Copyright (c) Steve Scherf et al.
# Submitted via: audiograbber 1.81.03
#
DISCID=8c0b200c
DTITLE=Eric Culberson and The Erok Band - Blues Is My Religion
DYEAR=1995
DGENRE=Blues
TTITLE0=Blues Is My Religion
TTITLE1=Someday, Baby
TTITLE2=Morning Light Blues
TTITLE3=Stray Minded Woman
TTITLE4=I'm Gonna Lose You
TTITLE5=Everybody's Talkin
TTITLE6=Stray Bullet Blues
TTITLE7=Ceiling Fan Blues
TTITLE8=Funk To The City
TTITLE9=Spell Is Broken
TTITLE10=Dead Cat Luck
TTITLE11=Wrapped Up In Love Again
EXTD=
EXTT0=
EXTT1=
EXTT2=
EXTT3=
EXTT4=
EXTT5=
EXTT6=
EXTT7=
EXTT8=
EXTT9=
EXTT10=
EXTT11=
PLAYORDER=
